<?xml version="1.0" standalone="no"?>
<!DOCTYPE svg PUBLIC "-//W3C//DTD SVG 20010904//EN"
 "http://www.w3.org/TR/2001/REC-SVG-20010904/DTD/svg10.dtd">
<svg version="1.0" xmlns="http://www.w3.org/2000/svg"
 width="612.000000pt" height="395.000000pt" viewBox="0 0 612.000000 395.000000"
 preserveAspectRatio="xMidYMid meet">

<g transform="translate(0.000000,395.000000) scale(0.100000,-0.100000)"
fill="#000000" stroke="none">
<path d="M0 1975 l0 -1975 3060 0 3060 0 0 1975 0 1975 -3060 0 -3060 0 0
-1975z m2320 1856 c36 -13 89 -40 119 -59 48 -32 631 -604 631 -620 0 -4 -124
-6 -275 -4 -152 1 -275 -1 -275 -6 0 -12 1168 -1178 1205 -1203 103 -68 212
-89 467 -89 l187 0 351 -350 c192 -192 350 -351 350 -355 0 -3 -267 -5 -592
-5 -659 0 -648 -1 -768 69 -40 24 -409 386 -1357 1334 -717 716 -1303 1306
-1303 1310 0 5 269 7 598 5 l597 -3 65 -24z m1430 0 c36 -13 89 -40 119 -60
46 -29 1221 -1191 1221 -1206 0 -10 -651 -5 -724 6 -83 11 -147 36 -215 82
-38 26 -1157 1136 -1200 1191 -14 17 -1 18 360 14 363 -4 376 -5 439 -27z
m-1397 -2689 c-832 -2 -849 -2 -916 18 -163 50 -282 161 -355 331 l-27 64 -3
870 -2 870 1075 -1075 1075 -1075 -847 -3z m1634 -566 c55 -26 103 -83 103
-123 0 -21 -4 -23 -60 -23 -45 0 -60 3 -60 14 0 21 -49 56 -77 56 -35 0 -77
-25 -93 -56 -23 -42 -19 -147 6 -181 44 -60 128 -53 164 12 15 28 21 30 71 30
54 0 54 0 52 -30 -3 -44 -52 -107 -103 -133 -38 -20 -56 -23 -118 -19 -61 3
-80 9 -115 33 -58 41 -89 101 -95 184 -3 40 1 82 8 105 21 64 84 122 160 148
38 13 108 5 157 -17z m-3785 -3 c8 -10 46 -74 84 -142 l69 -123 3 141 3 142
57 -3 57 -3 3 -227 2 -228 -63 0 c-56 0 -65 3 -75 23 -6 12 -32 58 -57 102
-25 44 -53 95 -62 113 -9 17 -20 32 -25 32 -4 0 -8 -61 -8 -135 l0 -135 -55 0
-55 0 0 230 0 230 53 0 c39 0 58 -5 69 -17z m2053 -118 c42 -74 79 -135 83
-135 4 0 7 60 7 132 l0 133 55 0 55 0 3 -228 2 -228 -62 3 c-51 2 -64 7 -73
23 -42 82 -141 245 -149 245 -5 0 -7 -52 -3 -135 l7 -135 -60 0 -60 0 0 230 0
230 59 0 60 0 76 -135z m-1450 -6 c49 -25 82 -75 87 -134 l3 -40 -123 -3
c-112 -2 -122 -4 -122 -22 0 -23 45 -60 75 -60 12 0 34 9 48 20 26 21 117 29
117 10 0 -5 -14 -25 -31 -45 -72 -82 -234 -69 -291 24 -27 42 -29 132 -5 178
44 84 153 116 242 72z m1120 7 c35 -15 70 -57 63 -77 -6 -19 -89 -15 -103 4
-15 20 -68 22 -84 3 -16 -20 3 -32 76 -49 105 -24 133 -55 119 -131 -9 -45
-57 -75 -128 -83 -96 -10 -167 25 -183 90 -7 27 -7 27 44 27 40 0 52 -4 61
-20 20 -38 100 -38 100 0 0 23 -21 36 -75 45 -52 10 -111 40 -119 60 -20 54 1
101 59 133 28 16 129 15 170 -2z m853 -1 c74 -30 116 -124 92 -209 -15 -56
-73 -112 -125 -122 -123 -23 -215 49 -215 168 0 32 6 71 14 86 42 81 142 113
234 77z m775 -9 c34 -23 35 -31 40 -188 l3 -128 -52 0 c-29 0 -54 5 -56 10 -2
7 -16 5 -40 -5 -73 -30 -147 -13 -172 40 -20 42 -20 60 1 95 12 21 31 32 73
44 31 9 68 16 81 16 14 0 34 6 45 14 28 21 7 50 -39 54 -28 2 -38 -1 -47 -17
-9 -17 -20 -21 -60 -21 -28 0 -50 5 -50 10 0 26 32 68 62 84 44 23 171 18 211
-8z m866 -6 c93 -66 93 -221 1 -285 -125 -86 -280 -9 -280 140 0 75 29 124 95
160 42 23 143 15 184 -15z m416 10 c43 -27 55 -72 55 -209 l0 -112 -55 3 -55
3 -3 113 c-2 87 -6 115 -17 122 -25 16 -59 11 -80 -10 -17 -17 -20 -33 -20
-125 l0 -105 -55 0 -55 0 2 163 3 162 53 3 c42 2 52 0 52 -12 0 -14 5 -13 37
4 48 25 97 25 138 0z m400 0 c43 -26 55 -72 55 -209 l0 -111 -60 0 -60 0 0
119 c0 99 -3 120 -16 125 -29 11 -54 6 -74 -14 -17 -17 -20 -33 -20 -125 l0
-105 -55 0 -55 0 2 163 3 162 53 3 c42 2 52 0 52 -12 0 -14 5 -13 37 4 48 25
97 25 138 0z m399 -14 c40 -30 66 -81 66 -130 l0 -36 -120 0 c-112 0 -120 -1
-120 -19 0 -24 45 -61 74 -61 12 0 32 9 44 20 15 15 35 20 73 20 l51 0 -19
-31 c-33 -57 -66 -74 -146 -74 -90 0 -135 25 -168 91 -41 86 -8 190 76 234 55
29 141 23 189 -14z m336 28 c43 -9 100 -64 100 -98 0 -24 -3 -26 -46 -26 -37
0 -50 5 -66 25 -37 48 -91 27 -106 -41 -22 -101 73 -173 113 -85 9 19 17 21
60 19 44 -3 50 -6 47 -23 -4 -26 -32 -64 -66 -89 -40 -30 -153 -30 -193 0 -52
38 -73 81 -73 146 0 128 94 199 230 172z m-4925 -23 c3 -10 14 -26 24 -35 17
-15 19 -14 37 19 18 33 21 35 71 35 31 0 53 -4 53 -11 0 -5 -19 -38 -42 -71
-23 -34 -41 -67 -41 -73 0 -6 23 -45 51 -88 29 -42 52 -79 52 -82 0 -3 -26 -5
-58 -5 l-57 0 -25 44 c-13 25 -28 42 -32 40 -5 -3 -20 -23 -34 -45 -23 -38
-26 -39 -80 -39 -66 0 -66 -3 4 99 l51 73 -49 74 c-28 40 -50 76 -50 79 0 3
27 5 59 5 49 0 61 -3 66 -19z m365 -87 c0 -120 8 -144 49 -144 49 0 60 24 63
140 l3 105 53 3 52 3 0 -165 0 -166 -50 0 c-43 0 -50 3 -50 20 0 18 -2 18 -36
-5 -41 -28 -94 -32 -134 -12 -46 23 -59 69 -60 205 l0 122 55 0 55 0 0 -106z
m1629 29 c12 -43 27 -89 33 -103 11 -24 11 -24 23 20 7 25 20 71 29 103 l17
57 55 0 c30 0 54 -3 54 -7 -1 -5 -24 -78 -54 -163 l-53 -155 -64 -3 -64 -3
-53 158 c-29 87 -53 161 -52 166 0 4 24 7 54 7 l53 0 22 -77z"/>
<path d="M675 375 c-39 -38 -32 -45 45 -45 42 0 70 4 70 10 0 19 -48 60 -70
60 -11 0 -32 -11 -45 -25z"/>
<path d="M2660 370 c-15 -15 -20 -33 -20 -73 0 -64 20 -97 59 -97 43 0 65 32
65 95 0 85 -55 124 -104 75z"/>
<path d="M3436 270 c-47 -9 -70 -34 -55 -61 13 -25 70 -25 92 -1 17 18 24 73
10 71 -5 -1 -26 -5 -47 -9z"/>
<path d="M4276 374 c-22 -21 -30 -57 -23 -105 7 -50 22 -69 58 -69 35 0 56 21
65 65 16 89 -49 160 -100 109z"/>
<path d="M5485 375 c-39 -38 -32 -45 45 -45 42 0 70 4 70 10 0 19 -48 60 -70
60 -11 0 -32 -11 -45 -25z"/>
</g>
</svg>
