<?xml version="1.0" encoding="UTF-8"?>
<svg version="1.1" xmlns="http://www.w3.org/2000/svg" width="612" height="395">
<path d="M0 0 C13.30085153 -0.02326384 26.60169815 -0.04098625 39.90256596 -0.05181217 C46.07998948 -0.05701045 52.25739899 -0.06405204 58.43481445 -0.07543945 C64.40651523 -0.08637762 70.37820261 -0.0922998 76.34991264 -0.09487724 C78.61783496 -0.09671192 80.88575662 -0.10029422 83.15367317 -0.10573006 C115.90098879 -0.1810335 135.15654702 3.58487252 159 27 C159.71510742 27.69996094 160.43021484 28.39992188 161.16699219 29.12109375 C163.30540728 31.22003337 165.43626137 33.32622961 167.5625 35.4375 C168.20469482 36.07486084 168.84688965 36.71222168 169.50854492 37.36889648 C173.28928812 41.16345783 176.86125691 45.0843485 180.36352539 49.13647461 C186.20072676 55.78355175 192.62626034 61.94870978 199.5390625 67.46484375 C201.24870792 69.26134281 201.61324008 70.58013726 202 73 C199.64082412 74.17958794 198.25834258 74.11491422 195.62963867 74.09765625 C194.7249736 74.09435303 193.82030853 74.0910498 192.88822937 74.08764648 C191.41795036 74.07519897 191.41795036 74.07519897 189.91796875 74.0625 C188.40847404 74.05682007 188.40847404 74.05682007 186.8684845 74.05102539 C182.5524912 74.03464313 178.23659154 74.00658573 173.9206543 73.97949219 C170.77393024 73.96140073 167.62722166 73.94930694 164.48046875 73.9375 C163.50635544 73.92920166 162.53224213 73.92090332 161.52861023 73.91235352 C160.61448868 73.90905029 159.70036713 73.90574707 158.75854492 73.90234375 C157.95849533 73.89710693 157.15844574 73.89187012 156.33415222 73.88647461 C153.80837885 74.00931981 151.47185413 74.48244322 149 75 C163.80916364 89.90274986 178.62987668 104.79392589 193.46429253 119.67154121 C200.35244262 126.58028583 207.23681352 133.49271787 214.11230469 140.4140625 C220.10742974 146.4491505 226.1096357 152.4770911 232.12032521 158.49667919 C235.30047648 161.68202917 238.47705501 164.87076172 241.6451683 168.06808853 C244.63232554 171.08256429 247.62892196 174.08733387 250.63275719 177.08518791 C251.72862189 178.18214553 252.82111034 179.2824891 253.90977287 180.38659477 C265.15199359 191.78030292 276.99021143 199.98073356 293.50146484 200.09423828 C295.2379653 200.08872758 296.97445885 200.08061326 298.7109375 200.0703125 C300.61459248 200.07889544 302.51823971 200.08937087 304.421875 200.1015625 C307.40001085 200.11824948 310.37639648 200.1249881 313.35449219 200.09960938 C316.24521606 200.07855809 319.13285933 200.10194331 322.0234375 200.1328125 C322.9038974 200.11542023 323.7843573 200.09802795 324.6914978 200.08010864 C330.64690242 200.19529263 333.66076081 201.63410995 337.88540649 205.79888916 C338.58322235 206.52525574 339.28103821 207.25162231 340 208 C341.74018404 209.69318533 343.4811263 211.38559162 345.22265625 213.07739258 C347.17541347 215.01029874 349.1189338 216.9523891 351.0625 218.89453125 C352.10474671 219.93355816 353.14706571 220.97251256 354.18945312 222.01139832 C356.35609545 224.17209798 358.5207074 226.33480816 360.68408203 228.4987793 C363.4610273 231.27582712 366.24484587 234.04587648 369.03038025 236.81430531 C371.17667807 238.94952323 373.31845472 241.08923136 375.45895386 243.23026085 C376.48444482 244.25457015 377.51156144 245.27725456 378.54031372 246.29828835 C379.96908792 247.71732351 381.39097848 249.14327959 382.8125 250.56958008 C383.62332031 251.37897537 384.43414062 252.18837067 385.26953125 253.02229309 C387 255 387 255 387 257 C387.99 257.33 388.98 257.66 390 258 C391.35386936 259.65002828 392.68678142 261.3174387 394 263 C394.99 263.66 395.98 264.32 397 265 C397 265.66 397 266.32 397 267 C397.61875 267.2475 398.2375 267.495 398.875 267.75 C401.35068687 269.20628639 401.95125002 270.37812506 403 273 C400.61223125 274.19388438 399.14010471 274.13089531 396.47439575 274.14044189 C395.52136063 274.14615204 394.5683255 274.15186218 393.58641052 274.15774536 C392.53711868 274.15886322 391.48782684 274.15998108 390.40673828 274.16113281 C389.30406113 274.16609772 388.20138397 274.17106262 387.06529236 274.17617798 C383.4002928 274.19083588 379.73533662 274.19761011 376.0703125 274.203125 C373.52359007 274.20887654 370.97686766 274.21463428 368.43014526 274.22039795 C363.76315452 274.22957406 359.0961768 274.23586806 354.42917931 274.2388947 C347.58363062 274.24335916 340.73828322 274.26082667 333.89279568 274.2898953 C327.94905824 274.31424843 322.00537002 274.3218457 316.06158066 274.32357025 C313.54276311 274.32658636 311.02394618 274.33457946 308.50516129 274.34775543 C304.9656917 274.36493824 301.42670217 274.36290491 297.88720703 274.35644531 C296.8581575 274.3656601 295.82910797 274.37487488 294.76887512 274.3843689 C280.22956161 274.30184861 267.01738472 269.95557792 256.31074905 259.95948315 C255.79272491 259.47683501 255.27470076 258.99418687 254.74097891 258.49691303 C249.39609979 253.48956998 244.19824381 248.33497168 239.02801514 243.14826965 C237.98254629 242.10323831 236.93685713 241.05842734 235.89097047 240.01381415 C233.05404949 237.17910296 230.22021166 234.34132792 227.38692212 231.50298774 C224.31735783 228.42906795 221.24486573 225.35807687 218.17274475 222.28671265 C212.86254878 216.97703871 207.55417347 211.6655503 202.24706268 206.35279274 C194.57405429 198.67162562 186.89825599 190.99325136 179.22179392 183.31553598 C166.76455551 170.85611391 154.30954765 158.39446457 141.85595703 145.93139648 C129.76501268 133.83126027 117.67300892 121.73218437 105.57958984 109.63452148 C104.83300664 108.88767555 104.08642343 108.14082962 103.31721649 107.37135199 C99.57147946 103.62430985 95.82572172 99.87728841 92.07995367 96.13027728 C61.05008968 65.09006201 30.02385165 34.04622436 -1 3 C-0.67 2.01 -0.34 1.02 0 0 Z " fill="#FEFDFD" transform="translate(106,8)"/>
<path d="M0 0 C0.99 0.33 1.98 0.66 3 1 C3 1.66 3 2.32 3 3 C3.99 3.33 4.98 3.66 6 4 C6 4.66 6 5.32 6 6 C6.66 6 7.32 6 8 6 C9.33105469 7.35009766 9.33105469 7.35009766 10.921875 9.2890625 C15.27988905 14.41255156 19.99971518 19.15060275 24.76269531 23.89306641 C26.264863 25.38980932 27.7615273 26.89190999 29.2578125 28.39453125 C30.21842902 29.35448798 31.17935515 30.314135 32.140625 31.2734375 C33.00204102 32.13372559 33.86345703 32.99401367 34.75097656 33.88037109 C37.00874264 36.12643897 37.00874264 36.12643897 40 38 C40 38.66 40 39.32 40 40 C40.99 40.33 41.98 40.66 43 41 C43 41.66 43 42.32 43 43 C43.66 43 44.32 43 45 43 C46.28888607 44.30777454 46.28888607 44.30777454 47.84690857 46.21382141 C53.05004181 52.32454753 58.77363786 57.91338856 64.44946289 63.57885742 C65.70203457 64.83278625 66.95439387 66.08692724 68.20655823 67.34126282 C71.58840745 70.72764811 74.97338466 74.11089008 78.359092 77.4934175 C81.91052901 81.0423122 85.45951356 84.5936581 89.00889587 88.14460754 C94.96612924 94.10365667 100.92546004 100.06060216 106.88598633 106.01635742 C113.76967816 112.89460278 120.6497535 119.77644982 127.52797133 126.66016883 C133.44478509 132.58152465 139.36355046 138.50092443 145.28394312 144.41870195 C148.81516357 147.94836629 152.34571179 151.47869592 155.87449837 155.01079369 C159.19074695 158.32993702 162.50944399 161.64661284 165.83002281 164.96142387 C167.04585894 166.17594123 168.26085135 167.3913039 169.47492218 168.60758591 C171.13637302 170.27178288 172.80089561 171.93284761 174.46620178 173.59318542 C175.39549531 174.52210193 176.32478884 175.45101843 177.28224277 176.40808392 C180.09266527 179.08837456 183.00492777 181.53028562 186 184 C187.08951227 185.16783308 188.14775036 186.36628706 189.16015625 187.6015625 C192.11986145 191.07043801 195.2522139 194.32207521 198.49609375 197.5234375 C198.97857574 198.0003302 199.46105774 198.4772229 199.9581604 198.96856689 C201.96315463 200.94618509 203.97212034 202.91967824 205.98510742 204.88916016 C207.47224382 206.34628443 208.95325005 207.80941757 210.43359375 209.2734375 C211.31072021 210.13372559 212.18784668 210.99401367 213.09155273 211.88037109 C215 214 215 214 215 216 C212.16902726 217.41548637 209.79470922 217.13252086 206.62762451 217.14044189 C205.63532424 217.14489858 205.63532424 217.14489858 204.6229775 217.1494453 C202.39544891 217.15815011 200.16797396 217.15964211 197.94042969 217.16113281 C196.34710576 217.16576015 194.75378294 217.1707847 193.16046143 217.17617798 C188.82093569 217.18932207 184.48142544 217.19575218 180.1418829 217.20018864 C177.42709838 217.20311936 174.71231809 217.20722442 171.99753571 217.21169281 C163.49404951 217.22538013 154.99057297 217.23503772 146.48707652 217.2388947 C136.6910878 217.2433626 126.89523952 217.26084605 117.09929347 217.2898953 C109.51862709 217.31158878 101.93799996 217.32160324 94.3573029 217.32293582 C89.83522093 217.32397944 85.31327073 217.32979073 80.79122162 217.34775543 C76.52633096 217.36436644 72.2616692 217.36632918 67.99675751 217.35761642 C66.44167463 217.35685265 64.88657879 217.36110026 63.33152771 217.37107468 C44.87600045 217.48238531 28.80334273 214.24479577 15.09301758 201.23364258 C5.24813322 191.4675567 -0.59979866 178.63333511 -1.12584114 164.65640545 C-1.12621817 163.4317196 -1.12659519 162.20703375 -1.12698364 160.94523621 C-1.12854363 160.25886198 -1.13010362 159.57248775 -1.13171089 158.8653143 C-1.13568162 156.57840022 -1.1325466 154.29155318 -1.12939453 152.00463867 C-1.13075025 150.36007651 -1.13253115 148.71551465 -1.13470459 147.07095337 C-1.1392568 142.61476448 -1.13749893 138.15859879 -1.1343255 133.70240951 C-1.13179262 129.04105171 -1.13414184 124.37969589 -1.13571167 119.71833801 C-1.13752974 111.89628747 -1.13513559 104.07424637 -1.13037109 96.25219727 C-1.12491966 87.19757082 -1.12669897 78.14296685 -1.1321975 69.08834094 C-1.13672761 61.31841533 -1.13737997 53.5484965 -1.13475883 45.77857 C-1.13319671 41.13572878 -1.13300071 36.49289815 -1.13629532 31.8500576 C-1.13917287 27.49082377 -1.13720052 23.13161912 -1.13140106 18.77238846 C-1.13007324 17.16830939 -1.13046795 15.56422788 -1.13266373 13.96014977 C-1.13537415 11.78001463 -1.13199559 9.59997456 -1.12698364 7.41984558 C-1.12660662 6.19704486 -1.12622959 4.97424414 -1.12584114 3.71438885 C-1 1 -1 1 0 0 Z " fill="#FEFEFE" transform="translate(105,65)"/>
<path d="M0 0 C8.38079776 -0.04664372 16.76153994 -0.0820301 25.14243603 -0.10362434 C29.03535279 -0.11399618 32.92817979 -0.12803237 36.82104492 -0.15087891 C40.5882332 -0.17284579 44.35533594 -0.18461804 48.12258339 -0.18975449 C49.54926205 -0.19340798 50.97593681 -0.20054015 52.40257835 -0.21146011 C80.01114361 -0.41409525 95.26432014 8.46055865 114.54336548 27.40965271 C116.10251494 28.95998512 117.65907935 30.51292055 119.21337891 32.06811523 C120.07315338 32.9245311 120.93292786 33.78094696 121.8187561 34.66331482 C124.14233261 36.97910245 126.46369277 39.29707934 128.78369951 41.61644244 C130.23550548 43.06753232 131.68802333 44.51790575 133.14078903 45.96803474 C138.21371954 51.03176559 143.28411402 56.09801942 148.35205078 61.16674805 C153.07261212 65.8879138 157.79876561 70.60343095 162.52747786 75.31643146 C166.59914428 79.37505109 170.66697545 83.43748737 174.7318033 87.50295597 C177.15502561 89.92643343 179.57978163 92.34832651 182.00841141 94.76638603 C184.70386928 97.45211577 187.3930003 100.14402289 190.08056641 102.83764648 C190.88772095 103.63918152 191.69487549 104.44071655 192.52648926 105.26654053 C193.25248322 105.99672897 193.97847717 106.72691742 194.72647095 107.47923279 C195.36242502 108.1146421 195.9983791 108.7500514 196.65360451 109.40471554 C198 111 198 111 198 113 C199.32 113.66 200.64 114.32 202 115 C202 115.66 202 116.32 202 117 C202.84111328 117.35964844 202.84111328 117.35964844 203.69921875 117.7265625 C206.49820004 119.27574399 208.5203048 121.14575685 210.8125 123.375 C212.02873047 124.53128906 212.02873047 124.53128906 213.26953125 125.7109375 C213.84058594 126.46632813 214.41164063 127.22171875 215 128 C214.6081543 130.14306641 214.6081543 130.14306641 214 132 C205.74958627 132.04665046 197.49922905 132.08203343 189.2487154 132.10362434 C185.41633202 132.11399475 181.58403988 132.1280282 177.75170898 132.15087891 C174.04287527 132.17285104 170.33412846 132.1846191 166.6252346 132.18975449 C165.22088442 132.19340707 163.81653818 132.20053733 162.41222572 132.21146011 C138.07474905 132.39296818 121.85856119 125.84902449 104.56713867 108.93945312 C102.33706518 106.7334793 100.12626084 104.50899859 97.91796875 102.28125 C96.72636742 101.08912839 95.53424365 99.8975288 94.34162903 98.7064209 C91.87232782 96.23703096 89.40818583 93.76264843 86.94799805 91.28417969 C83.79023047 88.10346487 80.62122103 84.93422879 77.44861889 81.76831818 C74.99909137 79.32212014 72.5545538 76.87098665 70.11162758 74.41819763 C68.94351982 73.24623946 67.77405907 72.07562825 66.60323143 70.90638733 C64.98073784 69.28426251 63.36486329 67.65583136 61.75073242 66.02539062 C60.37059212 64.63833923 60.37059212 64.63833923 58.96257019 63.2232666 C57 61 57 61 57 59 C56.4497113 58.77371918 55.89942261 58.54743835 55.3324585 58.31430054 C52.2920059 56.60105741 50.15964519 54.42990919 47.68066406 51.97119141 C47.16314072 51.46038528 46.64561737 50.94957916 46.1124115 50.42329407 C44.4081561 48.73799397 42.71150389 47.04528876 41.015625 45.3515625 C39.83321685 44.17558156 38.65065855 42.99975157 37.46795654 41.82406616 C34.99312824 39.3612027 32.52245906 36.89425007 30.05419922 34.42480469 C26.88765904 31.25806082 23.70756097 28.10532102 20.52377701 24.9559269 C18.07890775 22.53326396 15.64315161 20.10159662 13.20989227 17.66727829 C12.04089044 16.50063971 10.86863688 15.33725018 9.69312286 14.17717361 C8.05303403 12.55662711 6.42604306 10.92396271 4.80175781 9.28759766 C3.87228333 8.36097321 2.94280884 7.43434875 1.98516846 6.47964478 C0 4 0 4 0 0 Z " fill="#FDFDFC" transform="translate(294,8)"/>
<path d="M0 0 C3.62959015 2.22481754 6.34450886 4.31084974 7.9140625 8.35546875 C8.44843924 10.59628856 8.8837471 12.6991613 9 15 C7.27152533 16.72847467 5.0426665 16.29389493 2.6875 16.375 C-2.62748249 16.35434592 -2.62748249 16.35434592 -5.5625 13.5625 C-6.036875 12.716875 -6.51125 11.87125 -7 11 C-9.88861709 9.55569145 -11.79647701 9.62311494 -15 10 C-18.86706286 13.17958501 -20.72783194 15.48827758 -21.2734375 20.5234375 C-21.50934887 26.69486649 -21.50934887 26.69486649 -18.9375 32.1875 C-15.29799985 34.43314903 -13.20851192 34.54554784 -9 34 C-5.81544666 31.87696444 -4.84182279 30.26504948 -3 27 C-2 26 -2 26 -0.07421875 25.90234375 C0.71339844 25.91394531 1.50101562 25.92554688 2.3125 25.9375 C3.09238281 25.94652344 3.87226563 25.95554687 4.67578125 25.96484375 C5.82626953 25.98224609 5.82626953 25.98224609 7 26 C8.32 26 9.64 26 11 26 C11.32871094 25.11248047 11.32871094 25.11248047 11.6640625 24.20703125 C14.25229599 17.75749007 16.82619748 14.44046718 22.890625 10.89453125 C27.42224395 8.97278914 32.64535835 9.25664044 37.2890625 10.72265625 C42.261357 13.02257524 45.73990935 15.69226204 47.75 20.96875 C49.57379057 27.44320651 49.23776962 33.87140178 45.9921875 39.859375 C42.61315633 44.37966835 38.35009521 46.51106719 32.83203125 47.31640625 C27.09716788 47.62239724 22.68641322 46.32551156 18 43 C14.61483762 39.86399932 12.42434092 36.40250831 11 32 C10.5875 32.556875 10.175 33.11375 9.75 33.6875 C9.1725 34.450625 8.595 35.21375 8 36 C7.319375 36.9075 6.63875 37.815 5.9375 38.75 C4.9784375 39.86375 4.9784375 39.86375 4 41 C3.34 41 2.68 41 2 41 C1.67 41.99 1.34 42.98 1 44 C-5.95376282 47.69751502 -13.20595304 47.98362578 -20.625 45.8125 C-27.91959892 43.08015882 -31.85117736 38.94417425 -35.08203125 31.94921875 C-37.2323637 25.04070384 -37.38112494 17.09037948 -34.3125 10.4375 C-26.87559723 -1.8176778 -12.83694838 -6.76437999 0 0 Z M25 23 C24.52531351 25.37108878 24.52531351 25.37108878 24.625 27.9375 C24.61726563 28.79214844 24.60953125 29.64679688 24.6015625 30.52734375 C25.07568949 33.46972005 25.95740706 34.85478875 28 37 C30.5 37.66666667 30.5 37.66666667 33 37 C35.28276734 35.18952935 35.90092778 33.73964875 36.28515625 30.87109375 C36.42007484 27.31041624 36.32244674 24.69580613 34.8125 21.4375 C33.04836725 19.80361332 33.04836725 19.80361332 30.5 19.5625 C27.53376599 20.08159095 26.81076459 20.64083242 25 23 Z " fill="#FAF8F8" transform="translate(401,337)"/>
<path d="M0 0 C0.96550781 -0.03738281 1.93101562 -0.07476562 2.92578125 -0.11328125 C6.47562447 0.43400717 7.33233655 1.65694623 9.6875 4.3125 C11.15136719 6.51074219 11.15136719 6.51074219 12.484375 8.859375 C12.96777344 9.70371094 13.45117188 10.54804688 13.94921875 11.41796875 C14.44035156 12.29066406 14.93148437 13.16335938 15.4375 14.0625 C15.94410156 14.95066406 16.45070312 15.83882813 16.97265625 16.75390625 C18.21672829 18.93690058 19.45476444 21.1230904 20.6875 23.3125 C21.39526992 15.95674835 21.83465692 8.7030476 21.6875 1.3125 C24.16525095 0.07362452 25.92403707 0.14508331 28.6875 0.125 C29.574375 0.11082031 30.46125 0.09664063 31.375 0.08203125 C33.6875 0.3125 33.6875 0.3125 35.6875 2.3125 C35.92800903 4.26138306 35.92800903 4.26138306 35.91455078 6.67041016 C35.91439972 7.57119293 35.91424866 8.47197571 35.91409302 9.40005493 C35.90377045 10.37405243 35.89344788 11.34804993 35.8828125 12.3515625 C35.8799826 13.34755463 35.87715271 14.34354675 35.87423706 15.36972046 C35.8630184 18.55910118 35.83791081 21.74820378 35.8125 24.9375 C35.80247238 27.09635012 35.79334615 29.25520463 35.78515625 31.4140625 C35.76307361 36.71363699 35.72957958 42.01304863 35.6875 47.3125 C33.28236979 48.51506511 31.55896436 48.5828777 28.875 48.6875 C28.02292969 48.73648438 27.17085937 48.78546875 26.29296875 48.8359375 C22.503898 48.07471489 21.1346593 46.24590268 18.6875 43.3125 C16.80859375 40.2265625 16.80859375 40.2265625 15.125 36.9375 C12.73824948 32.31833849 10.27292179 27.83698813 7.6875 23.3125 C7.3575 31.2325 7.0275 39.1525 6.6875 47.3125 C1.2425 47.8075 1.2425 47.8075 -4.3125 48.3125 C-8.0727942 44.5522058 -7.29383678 38.43041233 -7.32434082 33.33435059 C-7.2929864 28.89109201 -7.16663457 24.45185555 -7.015625 20.01123047 C-6.93648843 17.65741226 -6.86993428 15.303459 -6.8046875 12.94921875 C-6.75854523 11.45310222 -6.71169721 9.95700725 -6.6640625 8.4609375 C-6.63428818 7.40487808 -6.63428818 7.40487808 -6.60391235 6.32748413 C-6.38967898 0.36330528 -5.89113687 0.14825378 0 0 Z " fill="#FAF9FA" transform="translate(211.3125,334.6875)"/>
<path d="M0 0 C0.96550781 -0.03738281 1.93101563 -0.07476562 2.92578125 -0.11328125 C6.60737144 0.45431893 7.41157485 1.35921618 9.6875 4.3125 C11.53264687 7.31494058 13.21299753 10.39320243 14.875 13.5 C15.76298795 15.14004642 16.65224315 16.77940756 17.54296875 18.41796875 C17.93121826 19.14137451 18.31946777 19.86478027 18.71948242 20.61010742 C19.5732116 22.28659846 19.5732116 22.28659846 20.6875 23.3125 C20.71255615 22.6512915 20.7376123 21.99008301 20.76342773 21.30883789 C20.87903102 18.33067695 21.00191754 15.3528608 21.125 12.375 C21.16431641 11.33408203 21.20363281 10.29316406 21.24414062 9.22070312 C21.28603516 8.23134766 21.32792969 7.24199219 21.37109375 6.22265625 C21.40775146 5.30621338 21.44440918 4.38977051 21.48217773 3.44555664 C21.6875 1.3125 21.6875 1.3125 22.6875 0.3125 C24.49677281 0.18762242 26.31146107 0.13679154 28.125 0.125 C29.11371094 0.11082031 30.10242187 0.09664063 31.12109375 0.08203125 C33.6875 0.3125 33.6875 0.3125 35.6875 2.3125 C35.93473816 4.12730408 35.93473816 4.12730408 35.93041992 6.34741211 C35.93503487 7.59396828 35.93503487 7.59396828 35.93974304 8.8657074 C35.93255753 9.76467239 35.92537201 10.66363739 35.91796875 11.58984375 C35.91751053 12.51213272 35.91705231 13.43442169 35.9165802 14.38465881 C35.91355595 16.33742558 35.90566452 18.29018989 35.89331055 20.24291992 C35.8750956 23.23429911 35.87280057 26.22536811 35.87304688 29.21679688 C35.86813009 31.11198185 35.86230107 33.00716472 35.85546875 34.90234375 C35.85435593 35.79928452 35.8532431 36.69622528 35.85209656 37.62034607 C35.84571671 38.45453568 35.83933685 39.28872528 35.83276367 40.14819336 C35.82704597 41.24834023 35.82704597 41.24834023 35.82121277 42.37071228 C35.6875 44.3125 35.6875 44.3125 34.6875 47.3125 C32.77574911 47.61609566 30.85754429 47.8792527 28.9375 48.125 C27.87015625 48.27582031 26.8028125 48.42664063 25.703125 48.58203125 C22.6875 48.3125 22.6875 48.3125 20.65625 46.4375 C17.97560058 42.18250092 15.42216322 37.87198005 12.9375 33.5 C11.205 30.468125 9.4725 27.43625 7.6875 24.3125 C7.3575 31.9025 7.0275 39.4925 6.6875 47.3125 C-4.3125 48.3125 -4.3125 48.3125 -6.3125 47.3125 C-7.45392937 41.90065709 -7.38827708 36.63976304 -7.2265625 31.1328125 C-7.20532318 30.27944305 -7.18408386 29.42607361 -7.16220093 28.54684448 C-7.11620511 26.75673974 -7.06730164 24.96670757 -7.015625 23.17675781 C-6.93715148 20.42528012 -6.87030008 17.67368629 -6.8046875 14.921875 C-6.75850045 13.17966913 -6.71164938 11.4374807 -6.6640625 9.6953125 C-6.64421295 8.86935577 -6.6243634 8.04339905 -6.60391235 7.19241333 C-6.38898717 0.16078246 -6.38898717 0.16078246 0 0 Z " fill="#FCFBFB" transform="translate(13.3125,334.6875)"/>
<path d="M0 0 C3.29836734 3.36403311 3.41053373 6.12033809 3.51171875 10.734375 C3.54716797 12.02988281 3.58261719 13.32539063 3.61914062 14.66015625 C3.64223867 16.02343226 3.66502114 17.38671364 3.6875 18.75 C3.72068648 20.12893862 3.75517738 21.5078465 3.79101562 22.88671875 C3.87352291 26.25773059 3.94266771 29.62848128 4 33 C2.22925083 33.02705729 0.45838289 33.04642195 -1.3125 33.0625 C-2.29863281 33.07410156 -3.28476562 33.08570313 -4.30078125 33.09765625 C-7 33 -7 33 -10 32 C-10.721875 32.309375 -11.44375 32.61875 -12.1875 32.9375 C-16.86821485 34.70577005 -21.13698492 34.80448378 -25.75 32.8125 C-29.30212504 29.95106594 -31.63634948 27.67279241 -32.625 23.125 C-31.7370368 18.68518402 -29.34568111 15.97734925 -26 13 C-21.87406032 10.40908734 -17.32242562 10.20448811 -12.58203125 9.5625 C-11.72996094 9.376875 -10.87789063 9.19125 -10 9 C-9.67 8.34 -9.34 7.68 -9 7 C-12.41642759 6.74984127 -12.41642759 6.74984127 -16 7 C-16.99 8.485 -16.99 8.485 -18 10 C-20.6015625 10.29296875 -20.6015625 10.29296875 -23.625 10.1875 C-25.12933594 10.14689453 -25.12933594 10.14689453 -26.6640625 10.10546875 C-27.43492187 10.07066406 -28.20578125 10.03585937 -29 10 C-30.1796875 5.328125 -30.1796875 5.328125 -28.5625 2.375 C-20.85349782 -4.76992885 -8.88962271 -5.18561325 0 0 Z M-14.0625 19 C-15.16271484 19.2784375 -15.16271484 19.2784375 -16.28515625 19.5625 C-17.13400391 19.7790625 -17.13400391 19.7790625 -18 20 C-17.67 21.65 -17.34 23.3 -17 25 C-14.16193432 26.25072191 -14.16193432 26.25072191 -11.875 25.4375 C-9.66682166 24.0570088 -9.66682166 24.0570088 -9.25 20.875 C-9.1675 19.92625 -9.085 18.9775 -9 18 C-10.73827229 18 -12.38503224 18.57397644 -14.0625 19 Z " fill="#F8F6F6" transform="translate(357,350)"/>
<path d="M0 0 C5.17009321 3.38406101 7.12908603 7.28849651 8.71875 13.125 C9.03125 16 9.03125 16 8.71875 18.125 C6.71875 20.125 6.71875 20.125 4.47216797 20.35205078 C3.56096191 20.34157715 2.64975586 20.33110352 1.7109375 20.3203125 C0.72480469 20.31386719 -0.26132812 20.30742187 -1.27734375 20.30078125 C-2.82615234 20.27564453 -2.82615234 20.27564453 -4.40625 20.25 C-5.44652344 20.24097656 -6.48679687 20.23195313 -7.55859375 20.22265625 C-10.13304092 20.19903747 -12.70703212 20.16610149 -15.28125 20.125 C-14.95125 21.115 -14.62125 22.105 -14.28125 23.125 C-12.06772557 23.92064192 -12.06772557 23.92064192 -9.28125 24.125 C-8.37375 23.650625 -7.46625 23.17625 -6.53125 22.6875 C-2.36859928 20.68622562 1.16802022 20.6517241 5.71875 21.125 C6.37875 21.455 7.03875 21.785 7.71875 22.125 C7.71875 22.785 7.71875 23.445 7.71875 24.125 C7.05875 24.125 6.39875 24.125 5.71875 24.125 C5.6775 24.681875 5.63625 25.23875 5.59375 25.8125 C4.24322231 29.38175176 1.75297731 30.92369784 -1.28125 33.125 C-6.80517838 34.92530864 -12.86194536 34.98487438 -18.21875 32.6875 C-19.229375 32.171875 -20.24 31.65625 -21.28125 31.125 C-21.94125 30.795 -22.60125 30.465 -23.28125 30.125 C-23.28125 29.465 -23.28125 28.805 -23.28125 28.125 C-24.27125 27.795 -25.26125 27.465 -26.28125 27.125 C-29.77212509 22.08262488 -30.12792235 17.05170643 -29.28125 11.125 C-27.25717086 5.4880484 -23.18142297 0.81676757 -18.03125 -2.1875 C-11.39333469 -3.84697883 -5.97220468 -3.41268839 0 0 Z M-14.28125 7.125 C-14.61125 8.445 -14.94125 9.765 -15.28125 11.125 C-11.98125 10.795 -8.68125 10.465 -5.28125 10.125 C-5.61125 9.135 -5.94125 8.145 -6.28125 7.125 C-8.92125 7.125 -11.56125 7.125 -14.28125 7.125 Z " fill="#FAF9F9" transform="translate(563.28125,349.875)"/>
<path d="M0 0 C4.87777768 3.76919184 6.81894481 8.07325032 8 14 C7.63636364 18.36363636 7.63636364 18.36363636 6 20 C4.36527118 20.08700342 2.72685945 20.10701063 1.08984375 20.09765625 C0.10048828 20.09443359 -0.88886719 20.09121094 -1.90820312 20.08789062 C-2.94912109 20.07951172 -3.99003906 20.07113281 -5.0625 20.0625 C-6.10728516 20.05798828 -7.15207031 20.05347656 -8.22851562 20.04882812 C-10.8190666 20.03699913 -13.40950559 20.02051689 -16 20 C-15.67 20.99 -15.34 21.98 -15 23 C-10.83842676 24.38719108 -8.77670054 23.57488793 -4.9140625 21.703125 C-1.60299681 20.48681515 1.50908822 20.8162678 5 21 C5.66 22.32 6.32 23.64 7 25 C6.34 25 5.68 25 5 25 C4.855625 25.7425 4.71125 26.485 4.5625 27.25 C2.14437626 31.50589779 -1.43206516 32.62447051 -6 34 C-12.5997669 34.83806564 -18.28439824 33.48632066 -24 30 C-28.07766946 25.8757818 -29.80918985 20.96439673 -30.125 15.23046875 C-29.80208615 9.46847468 -27.90799915 5.48718046 -23.625 1.625 C-16.01072634 -4.22479688 -8.4294166 -4.61232229 0 0 Z M-16 8 C-16 8.66 -16 9.32 -16 10 C-12.7 10.33 -9.4 10.66 -6 11 C-6.33 9.68 -6.66 8.36 -7 7 C-10.77897651 5.9502843 -12.64919071 5.89023119 -16 8 Z " fill="#F8F6F7" transform="translate(83,350)"/>
<path d="M0 0 C0.99128906 -0.00257813 1.98257813 -0.00515625 3.00390625 -0.0078125 C5.4375 0.125 5.4375 0.125 6.4375 1.125 C6.58234849 2.66140197 6.66453941 4.20383135 6.71875 5.74609375 C6.75613281 6.68130859 6.79351562 7.61652344 6.83203125 8.58007812 C6.86683594 9.56427734 6.90164062 10.54847656 6.9375 11.5625 C7.00624617 13.49885048 7.07896875 15.43506513 7.15625 17.37109375 C7.18654297 18.23404053 7.21683594 19.0969873 7.24804688 19.98608398 C7.31033144 22.17612555 7.31033144 22.17612555 8.4375 24.125 C10.10361905 24.167721 11.77132885 24.16563832 13.4375 24.125 C14.96858061 22.59391939 14.61693942 21.14353515 14.68359375 19.01171875 C14.71646484 18.17576172 14.74933594 17.33980469 14.78320312 16.47851562 C14.84399351 14.71300762 14.90133262 12.94737713 14.95507812 11.18164062 C14.98923828 10.34181641 15.02339844 9.50199219 15.05859375 8.63671875 C15.0836499 7.86803467 15.10870605 7.09935059 15.13452148 6.30737305 C15.46863992 3.90069726 16.24348179 2.22610181 17.4375 0.125 C19.08324566 0.09811849 20.72911413 0.07865877 22.375 0.0625 C23.29152344 0.05089844 24.20804688 0.03929687 25.15234375 0.02734375 C27.4375 0.125 27.4375 0.125 28.4375 1.125 C28.52593793 3.57330426 28.55278752 5.99320599 28.53515625 8.44140625 C28.5337413 9.17246078 28.53232635 9.90351532 28.53086853 10.65672302 C28.52525408 13.00035632 28.51269922 15.34389539 28.5 17.6875 C28.49498686 19.27278508 28.49042363 20.85807166 28.48632812 22.44335938 C28.47527997 26.3372761 28.45800572 30.23112205 28.4375 34.125 C26.08479407 35.30135297 24.616748 35.25859359 22 35.25 C20.82630859 35.25386719 20.82630859 35.25386719 19.62890625 35.2578125 C17.4375 35.125 17.4375 35.125 14.4375 34.125 C13.1071875 34.62 13.1071875 34.62 11.75 35.125 C7.64193395 36.36517088 4.5508399 36.29539362 0.4375 35.125 C-3.61794587 32.65646773 -5.10922574 30.57023938 -6.5625 26.125 C-6.88134766 23.26245117 -6.88134766 23.26245117 -6.9765625 20.16796875 C-7.01523438 19.05615234 -7.05390625 17.94433594 -7.09375 16.79882812 C-7.1246875 15.64833984 -7.155625 14.49785156 -7.1875 13.3125 C-7.22617188 12.14267578 -7.26484375 10.97285156 -7.3046875 9.76757812 C-7.3987513 6.88687436 -7.48439877 4.00617346 -7.5625 1.125 C-4.93920316 -0.18664842 -2.92551375 -0.00762846 0 0 Z " fill="#F9F7F8" transform="translate(135.5625,347.875)"/>
<path d="M0 0 C3.8026029 2.0050088 5.61790841 3.42686262 8 7 C8.22705078 10.00268555 8.22705078 10.00268555 8.1953125 13.63671875 C8.18886719 14.93544922 8.18242187 16.23417969 8.17578125 17.57226562 C8.1590706 18.94401307 8.14214071 20.31575786 8.125 21.6875 C8.11496674 23.07095718 8.10584149 24.45442127 8.09765625 25.83789062 C8.07404967 29.22543452 8.04112037 32.61263072 8 36 C4.04 35.67 0.08 35.34 -4 35 C-4.06058594 33.50726563 -4.12117188 32.01453125 -4.18359375 30.4765625 C-4.26799173 28.52603138 -4.3526401 26.57551108 -4.4375 24.625 C-4.47681641 23.64015625 -4.51613281 22.6553125 -4.55664062 21.640625 C-4.59853516 20.69960938 -4.64042969 19.75859375 -4.68359375 18.7890625 C-4.72025146 17.91975098 -4.75690918 17.05043945 -4.79467773 16.15478516 C-4.87401544 13.9516738 -4.87401544 13.9516738 -6 12 C-9.02934491 11.34227572 -9.02934491 11.34227572 -12 11 C-13.20516286 15.89154337 -13.33461434 20.80275122 -13.5625 25.8125 C-13.60568359 26.69615234 -13.64886719 27.57980469 -13.69335938 28.49023438 C-13.79891536 30.65999623 -13.89991071 32.8299791 -14 35 C-16.59100826 36.29550413 -18.19424369 35.96400816 -21.0625 35.6875 C-21.96097656 35.60886719 -22.85945313 35.53023438 -23.78515625 35.44921875 C-24.51605469 35.30097656 -25.24695313 35.15273438 -26 35 C-28.15336471 30.69327058 -27.18585478 24.92674995 -27.18530273 20.14160156 C-27.18749152 18.00826135 -27.20565919 15.87543634 -27.22460938 13.7421875 C-27.22754294 12.39062677 -27.22952798 11.03906358 -27.23046875 9.6875 C-27.23457764 8.45386719 -27.23868652 7.22023438 -27.24291992 5.94921875 C-27 3 -27 3 -25 1 C-22.6875 0.76953125 -22.6875 0.76953125 -20 0.8125 C-18.6696875 0.82216797 -18.6696875 0.82216797 -17.3125 0.83203125 C-15 1 -15 1 -13 2 C-8.47780751 -0.23247477 -5.04219871 -0.72530761 0 0 Z " fill="#F9F8F8" transform="translate(481,347)"/>
<path d="M0 0 C4.06205234 2.06795392 6.39767973 3.7375526 8 8 C8.22705078 11.02441406 8.22705078 11.02441406 8.1953125 14.515625 C8.18886719 15.76601563 8.18242188 17.01640625 8.17578125 18.3046875 C8.15902344 19.60664063 8.14226563 20.90859375 8.125 22.25 C8.11597656 23.56742187 8.10695313 24.88484375 8.09765625 26.2421875 C8.07408609 29.49486916 8.03821525 32.74745744 8 36 C4.04 35.67 0.08 35.34 -4 35 C-4.06058594 33.50726563 -4.12117187 32.01453125 -4.18359375 30.4765625 C-4.26799173 28.52603138 -4.3526401 26.57551108 -4.4375 24.625 C-4.47681641 23.64015625 -4.51613281 22.6553125 -4.55664062 21.640625 C-4.59853516 20.69960938 -4.64042969 19.75859375 -4.68359375 18.7890625 C-4.72025146 17.91975098 -4.75690918 17.05043945 -4.79467773 16.15478516 C-4.87401544 13.9516738 -4.87401544 13.9516738 -6 12 C-7.98 12 -9.96 12 -12 12 C-12.9300889 14.7902667 -13.18698769 16.76529542 -13.31640625 19.66796875 C-13.35830078 20.56064453 -13.40019531 21.45332031 -13.44335938 22.37304688 C-13.50233398 23.76620117 -13.50233398 23.76620117 -13.5625 25.1875 C-13.60568359 26.12787109 -13.64886719 27.06824219 -13.69335938 28.03710938 C-13.79938665 30.35792854 -13.90145029 32.67885325 -14 35 C-16.52475462 36.26237731 -18.31200466 36.09856404 -21.125 36.0625 C-22.03507812 36.05347656 -22.94515625 36.04445313 -23.8828125 36.03515625 C-24.58148438 36.02355469 -25.28015625 36.01195312 -26 36 C-27.47360305 33.05279391 -27.14233596 30.06964632 -27.1328125 26.83984375 C-27.13376923 26.13477188 -27.13472595 25.42970001 -27.13571167 24.70326233 C-27.13639229 23.21289989 -27.13454621 21.72253448 -27.13037109 20.23217773 C-27.12501318 17.94312942 -27.13032409 15.65427663 -27.13671875 13.36523438 C-27.1360581 11.9192704 -27.13477722 10.47330654 -27.1328125 9.02734375 C-27.13483673 8.33881821 -27.13686096 7.65029266 -27.13894653 6.94090271 C-27.11495764 2.11495764 -27.11495764 2.11495764 -26 1 C-24.14712498 0.92773498 -22.29166122 0.9161878 -20.4375 0.9375 C-19.42558594 0.94652344 -18.41367187 0.95554687 -17.37109375 0.96484375 C-16.19740234 0.98224609 -16.19740234 0.98224609 -15 1 C-14.67 1.66 -14.34 2.32 -14 3 C-13.360625 2.505 -12.72125 2.01 -12.0625 1.5 C-7.93868057 -0.51982993 -4.51595372 -0.72350667 0 0 Z " fill="#FDFCFC" transform="translate(521,347)"/>
<path d="M0 0 C2.83540247 2.05566679 4.70315921 3.79380747 6.5 6.8125 C6.25 9.625 6.25 9.625 5.5 11.8125 C4.18 12.1425 2.86 12.4725 1.5 12.8125 C1.5 13.4725 1.5 14.1325 1.5 14.8125 C2.11875 15.10125 2.7375 15.39 3.375 15.6875 C5.5 16.8125 5.5 16.8125 7.5 18.8125 C7.73046875 20.90625 7.73046875 20.90625 7.6875 23.3125 C7.68105469 24.1065625 7.67460937 24.900625 7.66796875 25.71875 C7.5 27.8125 7.5 27.8125 6.5 29.8125 C5.84 29.8125 5.18 29.8125 4.5 29.8125 C4.5 30.4725 4.5 31.1325 4.5 31.8125 C-2.76131981 35.98775889 -9.15601996 36.45151696 -17.16015625 34.6015625 C-20.95107931 33.32315439 -22.83079152 31.82391469 -25.5 28.8125 C-26.375 25.5 -26.375 25.5 -26.5 22.8125 C-24.09454362 21.60977181 -22.55003047 21.71178528 -19.875 21.75 C-18.64910156 21.76353516 -18.64910156 21.76353516 -17.3984375 21.77734375 C-16.77195313 21.78894531 -16.14546875 21.80054688 -15.5 21.8125 C-14.84 23.1325 -14.18 24.4525 -13.5 25.8125 C-11.19 25.8125 -8.88 25.8125 -6.5 25.8125 C-6.5 24.8225 -6.5 23.8325 -6.5 22.8125 C-7.22445312 22.71453125 -7.94890625 22.6165625 -8.6953125 22.515625 C-14.45525658 21.62475365 -19.08551206 20.89590135 -23.5 16.8125 C-25.72187686 13.06308279 -26.65848618 10.96718503 -26.0625 6.625 C-21.00680561 -2.4752499 -8.94265147 -3.03411389 0 0 Z M-12.5 7.8125 C-12.5 8.8025 -12.5 9.7925 -12.5 10.8125 C-9.86 11.1425 -7.22 11.4725 -4.5 11.8125 C-5.16 10.4925 -5.82 9.1725 -6.5 7.8125 C-8.48 7.8125 -10.46 7.8125 -12.5 7.8125 Z " fill="#F7F5F6" transform="translate(193.5,348.1875)"/>
<path d="M0 0 C3.48564927 2.31062271 5.40061734 4.16669578 6.7265625 8.14453125 C7.85967801 22.93075985 7.85967801 22.93075985 2.7265625 29.14453125 C-2.50663446 33.28747884 -6.46620504 34.53340945 -13.12109375 34.421875 C-18.45398768 33.73469629 -22.7216458 31.10273806 -26.2109375 27.08203125 C-29.98397884 21.7083057 -29.76631042 16.50624281 -29.2734375 10.14453125 C-27.2868767 4.18484886 -23.35144109 0.89150626 -17.9609375 -2.16796875 C-11.35599669 -3.85760477 -5.95401121 -3.35654417 0 0 Z M-16.2734375 10.14453125 C-16.74894873 12.77970783 -16.74894873 12.77970783 -16.6484375 15.64453125 C-16.65617187 16.60359375 -16.66390625 17.56265625 -16.671875 18.55078125 C-16.47892501 21.16960653 -16.47892501 21.16960653 -14.90625 22.9609375 C-13.26203458 24.33485182 -13.26203458 24.33485182 -10.7734375 24.58203125 C-8.21306791 24.34662865 -8.21306791 24.34662865 -6.4609375 22.64453125 C-4.79537854 19.13809133 -4.72806909 15.91728529 -5.2734375 12.14453125 C-6.26539723 9.12472024 -6.26539723 9.12472024 -8.2734375 7.14453125 C-12.14031732 6.37115529 -13.92864076 7.03600072 -16.2734375 10.14453125 Z " fill="#F9F8F9" transform="translate(281.2734375,349.85546875)"/>
<path d="M0 0 C1.63133835 0.70104357 3.2187558 1.50289025 4.79296875 2.32421875 C4.79296875 2.98421875 4.79296875 3.64421875 4.79296875 4.32421875 C5.78296875 4.65421875 6.77296875 4.98421875 7.79296875 5.32421875 C9.74839063 8.30881004 9.79296875 9.58836666 9.79296875 13.32421875 C8.02289161 13.40535981 6.25174777 13.4634738 4.48046875 13.51171875 C3.49433594 13.54652344 2.50820313 13.58132813 1.4921875 13.6171875 C-1.63042828 13.27826393 -2.2182595 12.62261964 -4.20703125 10.32421875 C-6.74933972 9.90742578 -6.74933972 9.90742578 -9.20703125 10.32421875 C-11.4577817 12.15533723 -11.4577817 12.15533723 -11.47265625 14.85546875 C-11.4675 15.83515625 -11.46234375 16.81484375 -11.45703125 17.82421875 C-11.4621875 18.80390625 -11.46734375 19.78359375 -11.47265625 20.79296875 C-11.4577817 23.49310027 -11.4577817 23.49310027 -9.20703125 25.32421875 C-6.21034198 25.31127078 -6.21034198 25.31127078 -3.20703125 24.32421875 C-2.18095785 23.01084479 -1.179758 21.6775777 -0.20703125 20.32421875 C2.95082442 19.16079824 4.39519488 19.19162746 7.60546875 20.26171875 C8.32734375 20.61234375 9.04921875 20.96296875 9.79296875 21.32421875 C8.63511838 29.41188998 8.63511838 29.41188998 5.54296875 32.76171875 C0.17116382 35.81388064 -5.01088941 37.26584631 -11.20703125 36.32421875 C-16.53071535 34.50373528 -20.6075103 31.68727445 -24.20703125 27.32421875 C-25.96962486 22.04773661 -26.26800774 15.47255116 -24.48828125 10.19140625 C-19.44886346 0.80345859 -10.12340202 -3.09973195 0 0 Z " fill="#F9F8F8" transform="translate(598.20703125,347.67578125)"/>
<path d="M0 0 C1.91541138 -0.10841951 3.83259773 -0.18578079 5.75 -0.25 C6.81734375 -0.29640625 7.8846875 -0.3428125 8.984375 -0.390625 C12.66686479 0.08638145 13.61325128 1.26921542 16 4 C16.66 4 17.32 4 18 4 C18.57234375 3.34515625 19.1446875 2.6903125 19.734375 2.015625 C22.70813811 -0.62999873 24.33749161 -0.42010906 28.25 -0.25 C29.32765625 -0.21390625 30.4053125 -0.1778125 31.515625 -0.140625 C32.33546875 -0.09421875 33.1553125 -0.0478125 34 0 C34.495 1.485 34.495 1.485 35 3 C34.2575 3.680625 33.515 4.36125 32.75 5.0625 C29.3177017 8.524218 26.13381749 12.390559 25.875 17.4375 C27.30855843 20.70282754 29.3612173 23.20920028 31.56640625 25.99609375 C33.36622028 28.51191009 34.25303568 31.01214271 35 34 C24.37598821 35.86386172 24.37598821 35.86386172 21.08984375 33.80078125 C19.29654915 31.64150816 18 29.87198544 18 27 C15.65426549 27.89360934 15.65426549 27.89360934 14.82421875 31.0078125 C13.92123047 32.48894531 13.92123047 32.48894531 13 34 C9.64453125 34.8046875 9.64453125 34.8046875 5.8125 34.875 C3.90404297 34.93300781 3.90404297 34.93300781 1.95703125 34.9921875 C0.49330078 34.99605469 0.49330078 34.99605469 -1 35 C-0.30532917 31.06353196 0.65223346 28.28687316 3 25 C3.66 25 4.32 25 5 25 C5.28875 24.2575 5.5775 23.515 5.875 22.75 C6.82368263 20.43099801 7.86559779 18.23067324 9 16 C8.3503125 15.09636719 7.700625 14.19273437 7.03125 13.26171875 C6.18713141 12.07057362 5.34340155 10.87915294 4.5 9.6875 C4.07074219 9.09259766 3.64148438 8.49769531 3.19921875 7.88476562 C0 3.33984375 0 3.33984375 0 0 Z " fill="#FAF9F9" transform="translate(91,348)"/>
<path d="M0 0 C3.63 0 7.26 0 11 0 C14 6.5 14 6.5 14 11 C14.66 11 15.32 11 16 11 C16 12.32 16 13.64 16 15 C18.33691161 14.12331638 18.33691161 14.12331638 19 11.09375 C19.33 9.9078125 19.66 8.721875 20 7.5 C20.60770443 5.31606222 21.26242872 3.14356654 22 1 C24.34102859 -0.17051429 25.89352953 -0.1992246 28.5 -0.25 C29.69109375 -0.28867187 29.69109375 -0.28867187 30.90625 -0.328125 C31.5971875 -0.21984375 32.288125 -0.1115625 33 0 C33.66 0.99 34.32 1.98 35 3 C34.44848633 5.73974609 34.44848633 5.73974609 33.33203125 9.0234375 C32.73358398 10.80234375 32.73358398 10.80234375 32.12304688 12.6171875 C31.47432617 14.47730469 31.47432617 14.47730469 30.8125 16.375 C30.39935547 17.60734375 29.98621094 18.8396875 29.56054688 20.109375 C25.85853193 30.9623409 25.85853193 30.9623409 23 35 C20.40625 35.55859375 20.40625 35.55859375 17.5 35.4375 C16.5409375 35.41558594 15.581875 35.39367187 14.59375 35.37109375 C12 35 12 35 9 33 C7.95678711 30.7409668 7.95678711 30.7409668 7.02734375 27.94921875 C6.68509766 26.94052734 6.34285156 25.93183594 5.99023438 24.89257812 C5.64283203 23.83490234 5.29542969 22.77722656 4.9375 21.6875 C4.23913626 19.60778561 3.53994544 17.52834873 2.83984375 15.44921875 C2.38146118 14.06222778 2.38146118 14.06222778 1.91381836 12.6472168 C1.04539986 9.98374163 1.04539986 9.98374163 -0.17749023 7.47192383 C-1 5 -1 5 0 0 Z " fill="#FAF9F9" transform="translate(291,348)"/>
<path d="M0 0 C4.6875 3.61328125 4.6875 3.61328125 6 5 C6 5.99 6 6.98 6 8 C3.64082412 9.17958794 2.25834258 9.11491422 -0.37036133 9.09765625 C-1.72735893 9.09270142 -1.72735893 9.09270142 -3.11177063 9.08764648 C-4.58204964 9.07519897 -4.58204964 9.07519897 -6.08203125 9.0625 C-7.59152596 9.05682007 -7.59152596 9.05682007 -9.1315155 9.05102539 C-13.4475088 9.03464313 -17.76340846 9.00658573 -22.0793457 8.97949219 C-25.22606976 8.96140073 -28.37277834 8.94930694 -31.51953125 8.9375 C-32.49364456 8.92920166 -33.46775787 8.92090332 -34.47138977 8.91235352 C-35.38551132 8.90905029 -36.29963287 8.90574707 -37.24145508 8.90234375 C-38.04150467 8.89710693 -38.84155426 8.89187012 -39.66584778 8.88647461 C-42.19186582 9.00933171 -44.52645521 9.48885833 -47 10 C-47.99 10 -48.98 10 -50 10 C-50.33 9.01 -50.66 8.02 -51 7 C-23.775 6.505 -23.775 6.505 4 6 C2.68 4.68 1.36 3.36 0 2 C0 1.34 0 0.68 0 0 Z " fill="#CFCBCB" transform="translate(302,73)"/>
<path d="M0 0 C0.66 0.33 1.32 0.66 2 1 C2.484375 2.99609375 2.484375 2.99609375 2.75 5.4375 C2.89695312 6.64212891 2.89695312 6.64212891 3.046875 7.87109375 C3 10 3 10 1 12 C-1.24658203 12.22705078 -1.24658203 12.22705078 -4.0078125 12.1953125 C-4.99394531 12.18886719 -5.98007812 12.18242187 -6.99609375 12.17578125 C-8.54490234 12.15064453 -8.54490234 12.15064453 -10.125 12.125 C-11.16527344 12.11597656 -12.20554687 12.10695313 -13.27734375 12.09765625 C-15.85179092 12.07403747 -18.42578212 12.04110149 -21 12 C-20.67 12.99 -20.34 13.98 -20 15 C-15.94568308 16.15837626 -13.78187881 15.83691257 -10 14 C-11 17 -11 17 -13 18 C-16.66207344 18.39805146 -18.36457704 18.46820639 -21.375 16.25 C-23 14 -23 14 -23 10 C-15.08 10 -7.16 10 1 10 C0.505 5.05 0.505 5.05 0 0 Z " fill="#DFD6D7" transform="translate(569,358)"/>
<path d="M0 0 C1.37478516 0.01740234 1.37478516 0.01740234 2.77734375 0.03515625 C3.69644531 0.04417969 4.61554687 0.05320312 5.5625 0.0625 C6.27277344 0.07410156 6.98304687 0.08570313 7.71484375 0.09765625 C4.71484375 2.09765625 4.71484375 2.09765625 -1.28515625 2.09765625 C-1.28515625 11.33765625 -1.28515625 20.57765625 -1.28515625 30.09765625 C-1.94515625 30.09765625 -2.60515625 30.09765625 -3.28515625 30.09765625 C-3.94515625 28.11765625 -4.60515625 26.13765625 -5.28515625 24.09765625 C-4.95515625 24.09765625 -4.62515625 24.09765625 -4.28515625 24.09765625 C-4.2601001 23.40615479 -4.23504395 22.71465332 -4.20922852 22.00219727 C-4.09363464 18.88797759 -3.97074383 15.77408836 -3.84765625 12.66015625 C-3.80833984 11.57154297 -3.76902344 10.48292969 -3.72851562 9.36132812 C-3.68662109 8.32685547 -3.64472656 7.29238281 -3.6015625 6.2265625 C-3.56490479 5.2682251 -3.52824707 4.3098877 -3.49047852 3.32250977 C-3.21067663 0.29060181 -3.05274746 0.13045929 0 0 Z " fill="#E9E6E4" transform="translate(38.28515625,334.90234375)"/>
<path d="M0 0 C1.51400391 0.01740234 1.51400391 0.01740234 3.05859375 0.03515625 C4.07050781 0.04417969 5.08242188 0.05320312 6.125 0.0625 C7.29869141 0.07990234 7.29869141 0.07990234 8.49609375 0.09765625 C5.07211652 2.20471916 2.45666908 2.18446338 -1.50390625 2.09765625 C-1.49343262 2.93014893 -1.48295898 3.7626416 -1.47216797 4.62036133 C-1.43806183 7.71214781 -1.41299549 10.80383833 -1.39404297 13.89575195 C-1.3790513 15.89085243 -1.35363894 17.88586571 -1.328125 19.88085938 C-1.32167969 21.13447266 -1.31523437 22.38808594 -1.30859375 23.6796875 C-1.29812012 24.83702393 -1.28764648 25.99436035 -1.27685547 27.18676758 C-1.50390625 30.09765625 -1.50390625 30.09765625 -3.50390625 33.09765625 C-3.52856017 28.5586792 -3.54674414 24.01974082 -3.55883789 19.48071289 C-3.56387765 17.93545859 -3.57070945 16.39020909 -3.5793457 14.8449707 C-3.59142701 12.62840596 -3.59713798 10.41190407 -3.6015625 8.1953125 C-3.60672379 7.50051285 -3.61188507 6.8057132 -3.61720276 6.08985901 C-3.61739902 4.42536295 -3.56579754 2.76100126 -3.50390625 1.09765625 C-2.50390625 0.09765625 -2.50390625 0.09765625 0 0 Z " fill="#E6E1E1" transform="translate(497.50390625,347.90234375)"/>
<path d="M0 0 C1.50433594 0.01353516 1.50433594 0.01353516 3.0390625 0.02734375 C3.80992187 0.03894531 4.58078125 0.05054688 5.375 0.0625 C5.375 0.3925 5.375 0.7225 5.375 1.0625 C1.63932828 1.82661467 -0.97311918 2.13424763 -4.625 1.0625 C-4.51494608 5.45884104 -4.38435538 9.85433979 -4.25 14.25 C-4.2190625 15.49587891 -4.188125 16.74175781 -4.15625 18.02539062 C-4.11757812 19.22744141 -4.07890625 20.42949219 -4.0390625 21.66796875 C-4.0076416 22.77293701 -3.9762207 23.87790527 -3.94384766 25.01635742 C-3.62622818 28.05076646 -2.90253965 30.30794522 -1.625 33.0625 C-6.00460248 28.96545252 -6.73153921 26.20703926 -6.94140625 20.30078125 C-6.98330078 19.18251953 -7.02519531 18.06425781 -7.06835938 16.91210938 C-7.10767578 15.74486328 -7.14699219 14.57761719 -7.1875 13.375 C-7.23068359 12.19615234 -7.27386719 11.01730469 -7.31835938 9.80273438 C-7.42451176 6.88944117 -7.52656242 3.97606243 -7.625 1.0625 C-4.98041621 -0.25979189 -2.94738699 -0.03427194 0 0 Z " fill="#DFDADB" transform="translate(135.625,347.9375)"/>
<path d="M0 0 C0.33 0 0.66 0 1 0 C1 13.2 1 26.4 1 40 C0.67 40 0.34 40 0 40 C-0.02505615 39.08186523 -0.0501123 38.16373047 -0.07592773 37.21777344 C-0.1712027 33.80342975 -0.27042778 30.38924797 -0.37231445 26.97509766 C-0.41556035 25.4989061 -0.45724256 24.02266785 -0.49731445 22.54638672 C-0.55526846 20.42140652 -0.61888946 18.29665907 -0.68359375 16.171875 C-0.72025146 14.8940918 -0.75690918 13.61630859 -0.79467773 12.29980469 C-0.88861771 9.14336935 -0.88861771 9.14336935 -1.57836914 6.72363281 C-2.21977897 4.10154052 -1.1179599 2.36744449 0 0 Z " fill="#E9E7E8" transform="translate(246,337)"/>
<path d="M0 0 C1.16516703 3.39451994 0.83093313 5.34075897 -0.375 8.6875 C-0.65085937 9.47511719 -0.92671875 10.26273437 -1.2109375 11.07421875 C-2 13 -2 13 -3 14 C-3.04063832 15.66617115 -3.042721 17.33388095 -3 19 C-5.04219706 17.30820672 -5.91793306 16.36272334 -6.51171875 13.73828125 C-6.56972656 12.93777344 -6.62773437 12.13726562 -6.6875 11.3125 C-6.75324219 10.50425781 -6.81898438 9.69601562 -6.88671875 8.86328125 C-6.92410156 8.24839844 -6.96148437 7.63351562 -7 7 C-6.34 7 -5.68 7 -5 7 C-5 8.32 -5 9.64 -5 11 C-2.76660104 10.16745087 -2.76660104 10.16745087 -2.1484375 7.71484375 C-1.89320313 6.79832031 -1.63796875 5.88179688 -1.375 4.9375 C-1.11460937 4.01839844 -0.85421875 3.09929687 -0.5859375 2.15234375 C-0.39257812 1.44207031 -0.19921875 0.73179687 0 0 Z " fill="#DCD4D6" transform="translate(312,352)"/>
<path d="M0 0 C0.69222656 0.07605469 1.38445313 0.15210938 2.09765625 0.23046875 C3.9375 0.8125 3.9375 0.8125 5.9375 3.8125 C5.9375 4.8025 5.9375 5.7925 5.9375 6.8125 C3.2975 6.8125 0.6575 6.8125 -2.0625 6.8125 C-2.0625 6.1525 -2.0625 5.4925 -2.0625 4.8125 C-0.0825 4.8125 1.8975 4.8125 3.9375 4.8125 C3.6075 4.1525 3.2775 3.4925 2.9375 2.8125 C0.2975 2.8125 -2.3425 2.8125 -5.0625 2.8125 C-5.0625 4.1325 -5.0625 5.4525 -5.0625 6.8125 C-6.0525 6.8125 -7.0425 6.8125 -8.0625 6.8125 C-7.75 4.4375 -7.75 4.4375 -7.0625 1.8125 C-3.90703684 -0.29114211 -3.50162739 -0.45161176 0 0 Z " fill="#DBD2D6" transform="translate(554.0625,355.1875)"/>
<path d="M0 0 C20.295 0.495 20.295 0.495 41 1 C41 1.33 41 1.66 41 2 C35.64369798 2.21701898 30.28717907 2.41388435 24.92944336 2.59204102 C23.10665049 2.65550037 21.28404115 2.72447991 19.46166992 2.79907227 C16.84322193 2.905293 14.22475724 2.99169264 11.60546875 3.07421875 C10.38188911 3.1302552 10.38188911 3.1302552 9.1335907 3.18742371 C6.82885742 3.2487793 6.82885742 3.2487793 3 3 C2.01 2.01 1.02 1.02 0 0 Z " fill="#F4F0F1" transform="translate(391,208)"/>
<path d="M0 0 C0.99 0 1.98 0 3 0 C3 4.29 3 8.58 3 13 C2.01 12.67 1.02 12.34 0 12 C0 8.04 0 4.08 0 0 Z " fill="#F2F0ED" transform="translate(17,359)"/>
<path d="M0 0 C0.99290126 2.97870377 1.05524548 4.59182885 0.87890625 7.66796875 C0.83056641 8.56064453 0.78222656 9.45332031 0.73242188 10.37304688 C0.67634766 11.30181641 0.62027344 12.23058594 0.5625 13.1875 C0.51029297 14.12787109 0.45808594 15.06824219 0.40429688 16.03710938 C0.27468082 18.35841501 0.13971819 20.67928409 0 23 C-0.33 23 -0.66 23 -1 23 C-1.22527296 19.54254978 -1.42733544 16.08412975 -1.625 12.625 C-1.68945312 11.64015625 -1.75390625 10.6553125 -1.8203125 9.640625 C-1.871875 8.69960938 -1.9234375 7.75859375 -1.9765625 6.7890625 C-2.02893066 5.91975098 -2.08129883 5.05043945 -2.13525391 4.15478516 C-2 2 -2 2 0 0 Z " fill="#E3DFE2" transform="translate(507,359)"/>
<path d="M0 0 C0.66 0.99 1.32 1.98 2 3 C1.67 3.33 1.34 3.66 1 4 C0.76712992 5.68183948 0.58735834 7.3712416 0.4375 9.0625 C0.35371094 9.98160156 0.26992188 10.90070313 0.18359375 11.84765625 C0.12300781 12.55792969 0.06242187 13.26820313 0 14 C0.66 14 1.32 14 2 14 C1.34 15.32 0.68 16.64 0 18 C-1.48619895 15.02760209 -1.13177009 12.30380422 -1.125 9 C-1.12757813 7.741875 -1.13015625 6.48375 -1.1328125 5.1875 C-1 2 -1 2 0 0 Z " fill="#EDECEC" transform="translate(366,350)"/>
<path d="M0 0 C0.45375 0.495 0.9075 0.99 1.375 1.5 C2.87635519 3.22609337 2.87635519 3.22609337 5 3 C6.62514468 1.54166642 6.62514468 1.54166642 8 0 C7.25 4.75 7.25 4.75 5 7 C4.01 7 3.02 7 2 7 C1.34 4.69 0.68 2.38 0 0 Z " fill="#E0D7D6" transform="translate(104,349)"/>
<path d="M0 0 C0 2.97 0 5.94 0 9 C-0.99 8.34 -1.98 7.68 -3 7 C-3.66 7.66 -4.32 8.32 -5 9 C-4.6875 5.625 -4.6875 5.625 -4 2 C-1 0 -1 0 0 0 Z " fill="#D1CAC9" transform="translate(414,362)"/>
<path d="M0 0 C0.33 0 0.66 0 1 0 C1 5.28 1 10.56 1 16 C0.67 16 0.34 16 0 16 C-0.39278091 14.27478537 -0.76349151 12.54453752 -1.125 10.8125 C-1.33382812 9.84957031 -1.54265625 8.88664062 -1.7578125 7.89453125 C-2.02891012 4.65447747 -1.42381175 2.88453715 0 0 Z " fill="#E3E2E2" transform="translate(246,337)"/>
<path d="M0 0 C2.13586678 3.20380017 2.23132175 4.01939967 2.125 7.6875 C2.10695312 8.49574219 2.08890625 9.30398438 2.0703125 10.13671875 C2.04710937 10.75160156 2.02390625 11.36648438 2 12 C1.34 12 0.68 12 0 12 C-1.16063604 7.74433453 -0.76173392 4.3164922 0 0 Z " fill="#D7CDD0" transform="translate(233,353)"/>
<path d="M0 0 C4.75032037 0.46571768 8.12160643 1.14824002 12 4 C12.33 4.66 12.66 5.32 13 6 C12.1646875 5.505 12.1646875 5.505 11.3125 5 C8.69715478 3.8690399 6.8193354 3.84337026 4 4 C3.67 3.01 3.34 2.02 3 1 C2.01 0.67 1.02 0.34 0 0 Z " fill="#EEECEC" transform="translate(346,347)"/>
<path d="M0 0 C2.29013653 3.4352048 2.17842973 4.985331 2 9 C1.34 9 0.68 9 0 9 C-1.125 6.1875 -1.125 6.1875 -2 3 C-1.34 2.01 -0.68 1.02 0 0 Z " fill="#D3CDCB" transform="translate(35,356)"/>
<path d="M0 0 C3.96 0 7.92 0 12 0 C12.33 0.99 12.66 1.98 13 3 C12.01 3.33 11.02 3.66 10 4 C10 3.01 10 2.02 10 1 C9.278125 1.185625 8.55625 1.37125 7.8125 1.5625 C4.87173027 2.01995307 2.85896942 1.73516357 0 1 C0 0.67 0 0.34 0 0 Z " fill="#EBEAE7" transform="translate(113,348)"/>
</svg>
